<?xml version="1.0" encoding="UTF-8" standalone="no"?>
<svg width="128px" height="25px" viewBox="0 0 128 25" version="1.1" xmlns="http://www.w3.org/2000/svg" xmlns:xlink="http://www.w3.org/1999/xlink">
    <!-- Generator: Sketch 3.8 (29681) - http://www.bohemiancoding.com/sketch -->
    <title>logo-full-white</title>
    <desc>Created with Sketch.</desc>
    <defs></defs>
    <g id="Page-1" stroke="none" stroke-width="1" fill="none" fill-rule="evenodd">
        <g id="logo-full-white" fill="#FFFFFF">
            <g id="Page-1">
                <g id="While-Full">
                    <path d="M22.0056264,7.01811656 C22.0121604,7.01811656 22.0173876,7.01985897 22.0239216,7.01985897 C22.0291488,7.01985897 22.0348117,7.01811656 22.0413457,7.01811656 C24.4247373,7.01811656 26.3577173,8.94935417 26.3577173,11.3353594 C26.3577173,12.6700412 25.7513605,13.8631527 24.7987008,14.6544222 C24.383573,15.04777 23.8645542,15.3350489 23.2301012,15.4818465 C22.8541774,15.5911824 22.4529887,15.6515132 22.0413457,15.6515132 L22.0239216,15.6515132 L22.0056264,15.6515132 C21.5937655,15.6515132 21.1943193,15.5911824 20.8162175,15.4818465 C20.1830713,15.3350489 19.6623101,15.04777 19.2480534,14.6544222 C18.295176,13.8631527 17.6886014,12.6700412 17.6886014,11.3353594 C17.6886014,8.94935417 19.6224526,7.01811656 22.0056264,7.01811656 M3.72257576,24.385098 C6.04149837,24.6765152 8.10058492,22.9881252 8.31991008,20.6143168 C8.39265547,19.8130286 8.24215528,19.0359161 7.92939367,18.3476664 C4.67980924,11.2177471 20.710802,11.05505 18.002452,17.7853053 C17.9963536,17.7940173 17.9906908,17.8016403 17.9835034,17.8136194 C16.7026182,19.8611625 17.3965308,22.5229032 19.5268382,23.7543476 C20.310049,24.2065016 21.1764596,24.3964236 22.0239216,24.3615756 C22.8718192,24.3964236 23.7391011,24.2065016 24.5210051,23.7543476 C26.6500056,22.5229032 27.3437004,19.8611625 26.0632509,17.8136194 C26.0573703,17.8016403 26.0499651,17.7940173 26.0440845,17.7853053 C23.3370412,11.05505 39.3682518,11.2177471 36.1173606,18.3476664 C35.8032922,19.0359161 35.6551878,19.8130286 35.727062,20.6143168 C35.9466049,22.9881252 38.0046025,24.6765152 40.3250497,24.385098 C41.3561176,24.2552889 42.2656527,23.7563078 42.9380031,23.0332099 C42.9380031,23.0332099 44.0176405,22.138703 43.9997808,19.8548463 C43.9847526,17.9939582 42.9380031,16.9628904 42.9380031,16.9628904 C42.0955505,16.1106367 40.8963406,15.6425833 39.6119707,15.7797977 C36.6357259,15.7122795 36.1946798,13.3837737 37.0345188,8.98942948 C37.3429244,8.21079246 37.4768717,7.37552729 37.4494288,6.54113333 C37.5315397,4.2951739 36.4020259,2.07992435 34.3226839,0.875051628 C34.0693819,0.728471848 33.8080212,0.608899337 33.5433935,0.500434656 C33.4723905,0.469071375 33.3994273,0.443370908 33.3271176,0.415056835 C33.2445711,0.385653758 33.1648561,0.354072676 33.0816563,0.329896814 C32.434353,0.111442847 31.743054,-0.00747626149 31.0232232,0.000364558848 C28.7837978,0.0210556125 26.8340471,1.21765192 25.7413417,2.99468673 C24.2424382,4.63820979 23.5652962,5.63726098 22.0239216,5.63726098 C20.5594306,5.63726098 19.8043161,4.63820979 18.3058482,2.99468673 C17.2133606,1.21765192 15.2633921,0.0210556125 13.0237489,0.000364558848 C12.302829,-0.00747626149 11.6130546,0.111442847 10.9661869,0.329896814 C10.8829871,0.354072676 10.8013119,0.385653758 10.7211613,0.415056835 C10.6479803,0.443370908 10.5763239,0.469071375 10.5033607,0.500434656 C10.2398221,0.608899337 9.97759018,0.728471848 9.72603053,0.875051628 C7.64429273,2.07992435 6.5156502,4.2951739 6.59732542,6.54113333 C6.56944694,7.37552729 6.7053545,8.21079246 7.01267109,8.98942948 C7.85163887,13.3837737 7.41124613,15.7122795 4.43674381,15.7797977 C2.97922243,15.6229813 1.89174421,16.2234574 0.792286958,17.3240037 C-0.308912698,18.4243322 -0.218307663,21.3679068 0.792286958,22.6535835 C1.52496806,23.5875123 2.51900984,24.2339444 3.72257576,24.385098" id="Fill-17-Copy-4"></path>
                    <path d="M64.7280006,19 L64.0752005,8.11359955 L59.1984003,19.2688 L54.8400002,8.13279955 L54.0528001,19 L52.6512001,19 L53.5920001,6.34719947 L55.5312002,6.34719947 L57.2784003,10.6287997 C57.5472016,11.3072031 57.806399,11.9663965 58.0560003,12.6063997 C58.3056016,13.246403 58.5263994,13.8223972 58.7184003,14.3343998 C58.9104013,14.8464024 59.0639998,15.2655982 59.1792003,15.5919999 C59.2944009,15.9184015 59.3584003,16.1007997 59.3712003,16.1391999 C59.3840004,16.1007997 59.4543997,15.9152015 59.5824004,15.5823999 C59.710401,15.2495982 59.8767993,14.8240024 60.0816004,14.3055998 C60.2864014,13.7871972 60.5199991,13.2144029 60.7824004,12.5871997 C61.0448017,11.9599966 61.3103991,11.3328028 61.5792004,10.7055997 L63.4800005,6.34719947 L65.3040006,6.34719947 L66.2256006,19 L64.7280006,19 Z M69.8352008,14.1807998 C69.8096007,14.2832003 69.7968008,14.3599996 69.7968008,14.4111998 L69.7968008,14.6607998 C69.7968008,15.7232052 70.0431983,16.539197 70.5360008,17.1087999 C71.0288033,17.6784028 71.7295963,17.9632 72.6384009,17.9632 C72.8944022,17.9632 73.1567996,17.9376002 73.4256009,17.8864 C73.6944023,17.8351997 73.9503997,17.7680004 74.193601,17.6847999 C74.4368022,17.6015995 74.6608,17.5056005 74.865601,17.3967999 C75.070402,17.2879994 75.2368004,17.1760005 75.364801,17.0607999 L75.480001,18.4048 C75.0959991,18.6480012 74.6544035,18.8495992 74.155201,19.0096 C73.6559984,19.1696008 72.996805,19.2496 72.1776009,19.2496 C71.6271981,19.2496 71.1152032,19.147201 70.6416008,18.9424 C70.1679984,18.737599 69.7552025,18.4400019 69.4032008,18.0496 C69.051199,17.659198 68.7728018,17.1824027 68.5680007,16.6191999 C68.3631997,16.0559971 68.2608007,15.4096035 68.2608007,14.6799998 C68.2608007,13.9375961 68.3567998,13.2784026 68.5488007,12.7023997 C68.7408017,12.1263968 69.009599,11.6432016 69.3552008,11.2527997 C69.7008025,10.8623977 70.1103984,10.5680006 70.5840008,10.3695996 C71.0576032,10.1711986 71.575998,10.0719996 72.1392009,10.0719996 C73.4320074,10.0719996 74.3375984,10.4143962 74.856001,11.0991997 C75.3744036,11.7840031 75.633601,12.8111929 75.633601,14.1807998 L69.8352008,14.1807998 Z M74.289601,13.0287998 C74.2640008,12.6447978 74.1872016,12.3408008 74.059201,12.1167997 C73.9312003,11.8927986 73.764802,11.7200003 73.5600009,11.5983997 C73.3551999,11.4767991 73.1216022,11.3999998 72.8592009,11.3679997 C72.5967996,11.3359995 72.3248023,11.3199997 72.0432009,11.3199997 C71.8383998,11.3199997 71.6080021,11.3519994 71.3520008,11.4159997 C71.0959996,11.48 70.9424011,11.5375994 70.8912008,11.5887997 C70.8656007,11.6143998 70.8144012,11.6623993 70.7376008,11.7327997 C70.6608004,11.8032001 70.5808012,11.8991991 70.4976008,12.0207997 C70.4144004,12.1424003 70.3280013,12.2863989 70.2384008,12.4527997 C70.1488003,12.6192006 70.0784011,12.8111987 70.0272008,13.0287998 L74.289601,13.0287998 Z M85.2912014,15.8895999 C85.2912014,16.1712013 85.2880015,16.4591984 85.2816014,16.7535999 C85.2752014,17.0480014 85.2688015,17.3711982 85.2624014,17.7231999 C85.2560014,18.0752017 85.2464015,18.5007975 85.2336014,19 L83.7744014,19 C83.7872014,18.5135975 83.7968013,18.1040016 83.8032014,17.7711999 C83.8096014,17.4383983 83.8128014,17.1376013 83.8128014,16.8687999 L83.8128014,13.9311998 C83.8128014,13.7519989 83.8064014,13.5728007 83.7936014,13.3935998 C83.7680012,13.0607981 83.7392015,12.769601 83.7072014,12.5199997 C83.6752012,12.2703985 83.6080019,12.0624005 83.5056014,11.8959997 C83.4032008,11.7295989 83.2592023,11.6048001 83.0736013,11.5215997 C82.8880004,11.4383993 82.6352029,11.3967997 82.3152013,11.3967997 C82.1872007,11.3967997 82.056002,11.4063996 81.9216013,11.4255997 C81.7872006,11.4447998 81.6560019,11.4639996 81.5280013,11.4831997 C81.4000006,11.5023998 81.2912017,11.5279995 81.2016013,11.5599997 C81.1120008,11.5919999 81.0480014,11.6143996 81.0096013,11.6271997 C80.958401,11.6527998 80.8752018,11.7199992 80.7600012,11.8287997 C80.6448007,11.9376002 80.5168019,12.0687989 80.3760012,12.2223997 C80.2352005,12.3760005 80.0912019,12.5359989 79.9440012,12.7023997 C79.7968005,12.8688006 79.6720017,13.022399 79.5696012,13.1631998 L79.5696012,19 L78.0912011,19 L78.0912011,12.7215997 C78.0912011,12.2223972 78.0752013,11.7808016 78.0432011,11.3967997 C78.011201,11.0127977 77.9760013,10.6480014 77.9376011,10.3023996 L79.3008012,10.3023996 L79.5312012,11.5887997 C79.9024031,11.1535975 80.3151989,10.7920011 80.7696012,10.5039996 C81.2240035,10.2159982 81.783998,10.0719996 82.4496013,10.0719996 C82.8336032,10.0719996 83.1887997,10.1071993 83.5152014,10.1775996 C83.841603,10.248 84.1232002,10.3695988 84.3600014,10.5423996 C84.5968026,10.7152005 84.7888007,10.9487982 84.9360014,11.2431997 C85.0832022,11.5376012 85.1760012,11.9087975 85.2144014,12.3567997 C85.2528016,12.7920019 85.2752014,13.2239976 85.2816014,13.6527998 C85.2880015,14.0816019 85.2912014,14.5135976 85.2912014,14.9487998 L85.2912014,15.8895999 Z M94.2576018,19 C94.2192016,18.8335992 94.1872019,18.6608009 94.1616018,18.4816 C94.1360017,18.3023991 94.1104019,18.1296008 94.0848018,17.9632 C93.6495996,18.4240023 93.2336037,18.753599 92.8368017,18.952 C92.4399997,19.150401 91.9536046,19.2496 91.3776017,19.2496 C90.852799,19.2496 90.3664039,19.1408011 89.9184016,18.9232 C89.4703994,18.7055989 89.0800033,18.398402 88.7472016,18.0016 C88.4143999,17.604798 88.1520025,17.1280027 87.9600015,16.5711999 C87.7680006,16.0143971 87.6720015,15.3904033 87.6720015,14.6991998 C87.6720015,13.2271924 88.0687976,12.0880037 88.8624016,11.2815997 C89.6560056,10.4751956 90.7311949,10.0719996 92.0880017,10.0719996 C92.4848037,10.0719996 92.8144004,10.0975994 93.0768018,10.1487996 C93.3392031,10.1999999 93.6432,10.2703992 93.9888018,10.3599996 L93.9888018,4.98399942 L95.4672019,4.98399942 L95.4672019,16.5999999 C95.4672019,17.0352021 95.4800017,17.4351981 95.5056019,17.8 C95.531202,18.1648018 95.5696016,18.5647978 95.6208019,19 L94.2576018,19 Z M93.9888018,12.9519997 C93.9888018,12.5935979 93.9568021,12.3088008 93.8928018,12.0975997 C93.8288015,11.8863986 93.7200025,11.7232003 93.5664018,11.6079997 C93.412801,11.4927991 93.2048031,11.4191998 92.9424017,11.3871997 C92.6800004,11.3551995 92.3504037,11.3391997 91.9536017,11.3391997 C91.812801,11.3391997 91.6592025,11.3455996 91.4928017,11.3583997 C91.3264008,11.3711997 91.1696024,11.3903996 91.0224017,11.4159997 C90.8752009,11.4415998 90.7408023,11.4703995 90.6192017,11.5023997 C90.497601,11.5343998 90.4112019,11.5759994 90.3600016,11.6271997 C90.2960013,11.6784 90.2064022,11.7807989 90.0912016,11.9343997 C89.976001,12.0880005 89.8576022,12.2895985 89.7360016,12.5391997 C89.614401,12.788801 89.5088021,13.0831981 89.4192016,13.4223998 C89.3296011,13.7616015 89.2848016,14.1423977 89.2848016,14.5647998 C89.2848016,15.1408027 89.3616008,15.6431977 89.5152016,16.0719999 C89.6688024,16.500802 89.8608005,16.8559985 90.0912016,17.1375999 C90.3216028,17.4192013 90.5712003,17.6271993 90.8400017,17.7615999 C91.108803,17.8960006 91.3648005,17.9632 91.6080017,17.9632 C91.864003,17.9632 92.1072006,17.9184004 92.3376017,17.8288 C92.5680029,17.7391995 92.7856007,17.6240006 92.9904017,17.4831999 C93.1952028,17.3423992 93.3808009,17.1824008 93.5472018,17.0031999 C93.7136026,16.823999 93.8608011,16.6384009 93.9888018,16.4463999 L93.9888018,12.9519997 Z M99.537602,14.1807998 C99.5120019,14.2832003 99.499202,14.3599996 99.499202,14.4111998 L99.499202,14.6607998 C99.499202,15.7232052 99.7455996,16.539197 100.238402,17.1087999 C100.731205,17.6784028 101.431998,17.9632 102.340802,17.9632 C102.596803,17.9632 102.859201,17.9376002 103.128002,17.8864 C103.396804,17.8351997 103.652801,17.7680004 103.896002,17.6847999 C104.139203,17.6015995 104.363201,17.5056005 104.568002,17.3967999 C104.772803,17.2879994 104.939202,17.1760005 105.067202,17.0607999 L105.182402,18.4048 C104.7984,18.6480012 104.356805,18.8495992 103.857602,19.0096 C103.3584,19.1696008 102.699206,19.2496 101.880002,19.2496 C101.329599,19.2496 100.817604,19.147201 100.344002,18.9424 C99.8703997,18.737599 99.4576038,18.4400019 99.105602,18.0496 C98.7536002,17.659198 98.475203,17.1824027 98.270402,16.6191999 C98.0656009,16.0559971 97.963202,15.4096035 97.963202,14.6799998 C97.963202,13.9375961 98.059201,13.2784026 98.251202,12.7023997 C98.4432029,12.1263968 98.7120003,11.6432016 99.057602,11.2527997 C99.4032037,10.8623977 99.8127997,10.5680006 100.286402,10.3695996 C100.760004,10.1711986 101.278399,10.0719996 101.841602,10.0719996 C103.134409,10.0719996 104.04,10.4143962 104.558402,11.0991997 C105.076805,11.7840031 105.336002,12.8111929 105.336002,14.1807998 L99.537602,14.1807998 Z M103.992002,13.0287998 C103.966402,12.6447978 103.889603,12.3408008 103.761602,12.1167997 C103.633602,11.8927986 103.467203,11.7200003 103.262402,11.5983997 C103.057601,11.4767991 102.824003,11.3999998 102.561602,11.3679997 C102.299201,11.3359995 102.027204,11.3199997 101.745602,11.3199997 C101.540801,11.3199997 101.310403,11.3519994 101.054402,11.4159997 C100.798401,11.48 100.644802,11.5375994 100.593602,11.5887997 C100.568002,11.6143998 100.516802,11.6623993 100.440002,11.7327997 C100.363202,11.8032001 100.283202,11.8991991 100.200002,12.0207997 C100.116802,12.1424003 100.030402,12.2863989 99.940802,12.4527997 C99.8512016,12.6192006 99.7808023,12.8111987 99.729602,13.0287998 L103.992002,13.0287998 Z M107.563202,19 L107.563202,4.98399942 L109.041602,4.98399942 L109.041602,19 L107.563202,19 Z M112.996803,14.1807998 C112.971202,14.2832003 112.958403,14.3599996 112.958403,14.4111998 L112.958403,14.6607998 C112.958403,15.7232052 113.2048,16.539197 113.697603,17.1087999 C114.190405,17.6784028 114.891198,17.9632 115.800003,17.9632 C116.056004,17.9632 116.318401,17.9376002 116.587203,17.8864 C116.856004,17.8351997 117.112002,17.7680004 117.355203,17.6847999 C117.598404,17.6015995 117.822402,17.5056005 118.027203,17.3967999 C118.232004,17.2879994 118.398402,17.1760005 118.526403,17.0607999 L118.641603,18.4048 C118.257601,18.6480012 117.816005,18.8495992 117.316803,19.0096 C116.8176,19.1696008 116.158407,19.2496 115.339203,19.2496 C114.7888,19.2496 114.276805,19.147201 113.803203,18.9424 C113.3296,18.737599 112.916804,18.4400019 112.564803,18.0496 C112.212801,17.659198 111.934404,17.1824027 111.729603,16.6191999 C111.524801,16.0559971 111.422403,15.4096035 111.422403,14.6799998 C111.422403,13.9375961 111.518402,13.2784026 111.710403,12.7023997 C111.902403,12.1263968 112.171201,11.6432016 112.516803,11.2527997 C112.862404,10.8623977 113.272,10.5680006 113.745603,10.3695996 C114.219205,10.1711986 114.7376,10.0719996 115.300803,10.0719996 C116.593609,10.0719996 117.4992,10.4143962 118.017603,11.0991997 C118.536005,11.7840031 118.795203,12.8111929 118.795203,14.1807998 L112.996803,14.1807998 Z M117.451203,13.0287998 C117.425603,12.6447978 117.348803,12.3408008 117.220803,12.1167997 C117.092802,11.8927986 116.926404,11.7200003 116.721603,11.5983997 C116.516802,11.4767991 116.283204,11.3999998 116.020803,11.3679997 C115.758401,11.3359995 115.486404,11.3199997 115.204803,11.3199997 C115.000002,11.3199997 114.769604,11.3519994 114.513603,11.4159997 C114.257601,11.48 114.104003,11.5375994 114.052803,11.5887997 C114.027202,11.6143998 113.976003,11.6623993 113.899203,11.7327997 C113.822402,11.8032001 113.742403,11.8991991 113.659203,12.0207997 C113.576002,12.1424003 113.489603,12.2863989 113.400003,12.4527997 C113.310402,12.6192006 113.240003,12.8111987 113.188803,13.0287998 L117.451203,13.0287998 Z M124.152003,19.4032 C123.896002,20.1328037 123.624004,20.8655964 123.336003,21.6016001 C123.048002,22.3376038 122.756804,23.0639966 122.462403,23.7808002 L120.849603,23.7808002 C121.233605,22.948796 121.611201,22.1392041 121.982403,21.3520001 C122.353605,20.5647961 122.667202,19.8128036 122.923203,19.096 L119.544003,10.3023996 L121.118403,10.3023996 L123.652803,16.9839999 L125.918403,10.3023996 L127.377603,10.3023996 L124.152003,19.4032 Z" id="Mendeley"></path>
                </g>
            </g>
        </g>
    </g>
</svg>